# Blender v2.90.1 OBJ File: 'plate.blend'
# www.blender.org
mtllib plate.mtl
g plate.001_ID5.001
v 0.344100 0.000000 0.000000
v 0.297999 0.000000 0.172050
v 0.297999 -0.000000 -0.172050
v 0.172050 0.000000 0.297999
v 0.172050 -0.000000 -0.297999
v 0.000000 -0.000000 -0.344100
v -0.000000 0.000000 0.344100
v -0.172050 -0.000000 -0.297999
v -0.172050 0.000000 0.297999
v -0.297999 0.000000 0.172050
v -0.297999 -0.000000 -0.172050
v -0.344100 0.000000 -0.000000
v 0.000000 0.060000 -0.445887
v 0.000000 0.020000 -0.370000
v -0.222943 0.060000 -0.386149
v -0.185000 0.020000 -0.320429
v -0.320429 0.020000 -0.185000
v -0.370000 0.020000 -0.000000
v -0.386149 0.060000 -0.222943
v -0.445887 0.060000 -0.000000
v 0.386149 0.060000 -0.222943
v 0.320429 0.020000 -0.185000
v 0.222943 0.060000 -0.386149
v 0.185000 0.020000 -0.320429
v 0.386149 0.060000 0.222943
v 0.222943 0.060000 0.386149
v 0.320429 0.020000 0.185000
v 0.185000 0.020000 0.320429
v -0.185000 0.020000 0.320429
v -0.222943 0.060000 0.386149
v -0.320429 0.020000 0.185000
v -0.386149 0.060000 0.222943
v 0.222943 0.060000 0.386149
v -0.000000 0.060000 0.445887
v 0.185000 0.020000 0.320429
v -0.000000 0.020000 0.370000
v 0.445887 0.060000 0.000000
v 0.370000 0.020000 0.000000
v 0.386149 0.060000 -0.222943
v 0.320429 0.020000 -0.185000
v 0.222943 0.060000 -0.386149
v 0.185000 0.020000 -0.320429
v 0.000000 0.060000 -0.445887
v 0.000000 0.020000 -0.370000
v -0.185000 0.020000 -0.320429
v -0.320429 0.020000 -0.185000
v -0.222943 0.060000 -0.386149
v -0.386149 0.060000 -0.222943
v -0.000000 0.060000 0.445887
v -0.222943 0.060000 0.386149
v -0.000000 0.020000 0.370000
v -0.185000 0.020000 0.320429
v 0.445887 0.060000 0.000000
v 0.386149 0.060000 0.222943
v 0.370000 0.020000 0.000000
v 0.320429 0.020000 0.185000
v -0.320429 0.020000 0.185000
v -0.386149 0.060000 0.222943
v -0.370000 0.020000 -0.000000
v -0.445887 0.060000 -0.000000
v 0.386149 0.090000 0.222943
v 0.386149 0.060000 0.222943
v 0.445887 0.090000 0.000000
v 0.445887 0.060000 0.000000
v -0.222943 0.060000 0.386149
v -0.222943 0.090000 0.386149
v -0.386149 0.060000 0.222943
v -0.386149 0.090000 0.222943
v 0.000000 0.060000 -0.445887
v -0.222943 0.060000 -0.386149
v 0.000000 0.090000 -0.445887
v -0.222943 0.090000 -0.386149
v -0.445887 0.060000 -0.000000
v -0.445887 0.090000 -0.000000
v -0.386149 0.060000 -0.222943
v -0.386149 0.090000 -0.222943
v 0.222943 0.090000 0.386149
v 0.222943 0.060000 0.386149
v 0.386149 0.090000 0.222943
v 0.386149 0.060000 0.222943
v -0.000000 0.060000 0.445887
v 0.222943 0.060000 0.386149
v -0.000000 0.090000 0.445887
v 0.222943 0.090000 0.386149
v -0.386149 0.060000 0.222943
v -0.386149 0.090000 0.222943
v -0.445887 0.060000 -0.000000
v -0.445887 0.090000 -0.000000
v 0.386149 0.060000 -0.222943
v 0.222943 0.060000 -0.386149
v 0.386149 0.090000 -0.222943
v 0.222943 0.090000 -0.386149
v -0.222943 0.060000 0.386149
v -0.000000 0.060000 0.445887
v -0.222943 0.090000 0.386149
v -0.000000 0.090000 0.445887
v -0.222943 0.060000 -0.386149
v -0.386149 0.060000 -0.222943
v -0.222943 0.090000 -0.386149
v -0.386149 0.090000 -0.222943
v 0.222943 0.060000 -0.386149
v 0.000000 0.060000 -0.445887
v 0.222943 0.090000 -0.386149
v 0.000000 0.090000 -0.445887
v 0.445887 0.090000 0.000000
v 0.445887 0.060000 0.000000
v 0.386149 0.090000 -0.222943
v 0.386149 0.060000 -0.222943
v 0.445887 0.090000 0.000000
v 0.386149 0.090000 -0.222943
v 0.386149 0.090000 0.222943
v 0.384003 0.090000 0.000000
v 0.332556 0.090000 0.192002
v 0.222943 0.090000 0.386149
v 0.192002 0.090000 0.332556
v -0.000000 0.090000 0.445887
v -0.000000 0.090000 0.384003
v -0.222943 0.090000 0.386149
v -0.192002 0.090000 0.332556
v -0.332556 0.090000 0.192002
v -0.386149 0.090000 0.222943
v -0.384003 0.090000 -0.000000
v 0.332556 0.090000 -0.192002
v 0.222943 0.090000 -0.386149
v 0.192002 0.090000 -0.332556
v 0.000000 0.090000 -0.445887
v 0.000000 0.090000 -0.384003
v -0.222943 0.090000 -0.386149
v -0.192002 0.090000 -0.332556
v -0.332556 0.090000 -0.192002
v -0.386149 0.090000 -0.222943
v -0.445887 0.090000 -0.000000
v 0.370000 0.020000 0.000000
v 0.320429 0.020000 0.185000
v 0.344100 0.000000 0.000000
v 0.297999 0.000000 0.172050
v 0.320429 0.020000 0.185000
v 0.185000 0.020000 0.320429
v 0.297999 0.000000 0.172050
v 0.172050 0.000000 0.297999
v -0.172050 0.000000 0.297999
v -0.185000 0.020000 0.320429
v -0.297999 0.000000 0.172050
v -0.320429 0.020000 0.185000
v 0.000000 0.020000 -0.370000
v 0.000000 -0.000000 -0.344100
v -0.185000 0.020000 -0.320429
v -0.172050 -0.000000 -0.297999
v -0.297999 -0.000000 -0.172050
v -0.344100 0.000000 -0.000000
v -0.320429 0.020000 -0.185000
v -0.370000 0.020000 -0.000000
v 0.185000 0.020000 -0.320429
v 0.172050 -0.000000 -0.297999
v 0.000000 0.020000 -0.370000
v 0.000000 -0.000000 -0.344100
v -0.297999 0.000000 0.172050
v -0.320429 0.020000 0.185000
v -0.344100 0.000000 -0.000000
v -0.370000 0.020000 -0.000000
v -0.172050 -0.000000 -0.297999
v -0.297999 -0.000000 -0.172050
v -0.185000 0.020000 -0.320429
v -0.320429 0.020000 -0.185000
v 0.370000 0.020000 0.000000
v 0.344100 0.000000 0.000000
v 0.320429 0.020000 -0.185000
v 0.297999 -0.000000 -0.172050
v -0.000000 0.020000 0.370000
v -0.185000 0.020000 0.320429
v -0.000000 0.000000 0.344100
v -0.172050 0.000000 0.297999
v 0.320429 0.020000 -0.185000
v 0.297999 -0.000000 -0.172050
v 0.185000 0.020000 -0.320429
v 0.172050 -0.000000 -0.297999
v 0.185000 0.020000 0.320429
v -0.000000 0.020000 0.370000
v 0.172050 0.000000 0.297999
v -0.000000 0.000000 0.344100
vt 0.000000 0.000000
vt 0.000000 0.000000
vt 0.000000 0.000000
vt 0.000000 0.000000
vt 0.000000 0.000000
vt 0.000000 0.000000
vt 0.000000 0.000000
vt 0.000000 0.000000
vt 0.000000 0.000000
vt 0.000000 0.000000
vt 0.000000 0.000000
vt 0.000000 0.000000
vt 0.000000 0.000000
vt 0.000000 0.000000
vt 0.000000 0.000000
vt 0.000000 0.000000
vt 0.000000 0.000000
vt 0.000000 0.000000
vt 0.000000 0.000000
vt 0.000000 0.000000
vt 0.000000 0.000000
vt 0.000000 0.000000
vt 0.000000 0.000000
vt 0.000000 0.000000
vt 0.000000 0.000000
vt 0.000000 0.000000
vt 0.000000 0.000000
vt 0.000000 0.000000
vt 0.000000 0.000000
vt 0.000000 0.000000
vt 0.000000 0.000000
vt 0.000000 0.000000
vt 0.000000 0.000000
vt 0.000000 0.000000
vt 0.000000 0.000000
vt 0.000000 0.000000
vt 0.000000 0.000000
vt 0.000000 0.000000
vt 0.000000 0.000000
vt 0.000000 0.000000
vt 0.000000 0.000000
vt 0.000000 0.000000
vt 0.000000 0.000000
vt 0.000000 0.000000
vt 0.000000 0.000000
vt 0.000000 0.000000
vt 0.000000 0.000000
vt 0.000000 0.000000
vt 0.000000 0.000000
vt 0.000000 0.000000
vt 0.000000 0.000000
vt 0.000000 0.000000
vt 0.000000 0.000000
vt 0.000000 0.000000
vt 0.000000 0.000000
vt 0.000000 0.000000
vt 0.000000 0.000000
vt 0.000000 0.000000
vt 0.000000 0.000000
vt 0.000000 0.000000
vt 0.000000 0.000000
vt 0.000000 0.000000
vt 0.000000 0.000000
vt 0.000000 0.000000
vt 0.000000 0.000000
vt 0.000000 0.000000
vt 0.000000 0.000000
vt 0.000000 0.000000
vt 0.000000 0.000000
vt 0.000000 0.000000
vt 0.000000 0.000000
vt 0.000000 0.000000
vt 0.000000 0.000000
vt 0.000000 0.000000
vt 0.000000 0.000000
vt 0.000000 0.000000
vt 0.000000 0.000000
vt 0.000000 0.000000
vt 0.000000 0.000000
vt 0.000000 0.000000
vt 0.000000 0.000000
vt 0.000000 0.000000
vt 0.000000 0.000000
vt 0.000000 0.000000
vt 0.000000 0.000000
vt 0.000000 0.000000
vt 0.000000 0.000000
vt 0.000000 0.000000
vt 0.000000 0.000000
vt 0.000000 0.000000
vt 0.000000 0.000000
vt 0.000000 0.000000
vt 0.000000 0.000000
vt 0.000000 0.000000
vt 0.000000 0.000000
vt 0.000000 0.000000
vt 0.000000 0.000000
vt 0.000000 0.000000
vt 0.000000 0.000000
vt 0.000000 0.000000
vt 0.000000 0.000000
vt 0.000000 0.000000
vt 0.000000 0.000000
vt 0.000000 0.000000
vt 0.000000 0.000000
vt 0.000000 0.000000
vt 0.000000 0.000000
vt 0.000000 0.000000
vt 0.000000 0.000000
vt 0.000000 0.000000
vt 0.000000 0.000000
vt 0.000000 0.000000
vt 0.000000 0.000000
vt 0.000000 0.000000
vt 0.000000 0.000000
vt 0.000000 0.000000
vt 0.000000 0.000000
vt 0.000000 0.000000
vt 0.000000 0.000000
vt 0.000000 0.000000
vt 0.000000 0.000000
vt 0.000000 0.000000
vt 0.000000 0.000000
vt 0.000000 0.000000
vt 0.000000 0.000000
vt 0.000000 0.000000
vt 0.000000 0.000000
vt 0.000000 0.000000
vt 0.000000 0.000000
vt 0.000000 0.000000
vt 0.000000 0.000000
vt 0.000000 0.000000
vt 0.000000 0.000000
vt 0.000000 0.000000
vt 0.000000 0.000000
vt 0.000000 0.000000
vt 0.000000 0.000000
vt 0.000000 0.000000
vt 0.000000 0.000000
vt 0.000000 0.000000
vt 0.000000 0.000000
vt 0.000000 0.000000
vt 0.000000 0.000000
vt 0.000000 0.000000
vt 0.000000 0.000000
vt 0.000000 0.000000
vt 0.000000 0.000000
vt 0.000000 0.000000
vt 0.000000 0.000000
vt 0.000000 0.000000
vt 0.000000 0.000000
vt 0.000000 0.000000
vt 0.000000 0.000000
vt 0.000000 0.000000
vt 0.000000 0.000000
vt 0.000000 0.000000
vt 0.000000 0.000000
vt 0.000000 0.000000
vt 0.000000 0.000000
vt 0.000000 0.000000
vt 0.000000 0.000000
vt 0.000000 0.000000
vt 0.000000 0.000000
vt 0.000000 0.000000
vt 0.000000 0.000000
vt 0.000000 0.000000
vt 0.000000 0.000000
vt 0.000000 0.000000
vt 0.000000 0.000000
vt 0.000000 0.000000
vt 0.000000 0.000000
vt 0.000000 0.000000
vt 0.000000 0.000000
vt 0.000000 0.000000
vt 0.000000 0.000000
vt 0.000000 0.000000
vt 0.000000 0.000000
vt 0.000000 0.000000
vt 0.000000 0.000000
vt 0.000000 0.000000
vn 0.0000 -1.0000 0.0000
vn -0.1240 -0.8778 -0.4627
vn -0.4627 -0.8778 -0.1240
vn 0.3387 -0.8778 -0.3387
vn 0.3387 -0.8778 0.3387
vn -0.3387 -0.8778 0.3387
vn 0.1240 -0.8778 0.4627
vn 0.4627 -0.8778 -0.1240
vn 0.1240 -0.8778 -0.4627
vn -0.3387 -0.8778 -0.3387
vn -0.1240 -0.8778 0.4627
vn 0.4627 -0.8778 0.1240
vn -0.4627 -0.8778 0.1240
vn 0.9659 0.0000 0.2588
vn -0.7071 0.0000 0.7071
vn -0.2588 0.0000 -0.9659
vn -0.9659 0.0000 -0.2588
vn 0.7071 0.0000 0.7071
vn 0.2588 0.0000 0.9659
vn -0.9659 0.0000 0.2588
vn 0.7071 0.0000 -0.7071
vn -0.2588 0.0000 0.9659
vn -0.7071 0.0000 -0.7071
vn 0.2588 0.0000 -0.9659
vn 0.9659 0.0000 -0.2588
vn 0.0000 1.0000 -0.0000
vn 0.6032 -0.7811 0.1616
vn 0.4415 -0.7811 0.4415
vn -0.4415 -0.7811 0.4415
vn -0.1616 -0.7811 -0.6032
vn -0.6032 -0.7811 -0.1616
vn 0.1616 -0.7811 -0.6032
vn -0.6032 -0.7811 0.1616
vn -0.4415 -0.7811 -0.4415
vn 0.6032 -0.7811 -0.1616
vn -0.1616 -0.7811 0.6032
vn 0.4415 -0.7811 -0.4415
vn 0.1616 -0.7811 0.6032
usemtl _defaultMat
s off
f 1/1/1 2/2/1 3/3/1
f 4/4/1 3/3/1 2/2/1
f 5/5/1 3/3/1 4/4/1
f 6/6/1 5/5/1 4/4/1
f 7/7/1 6/6/1 4/4/1
f 8/8/1 6/6/1 7/7/1
f 9/9/1 8/8/1 7/7/1
f 10/10/1 8/8/1 9/9/1
f 11/11/1 8/8/1 10/10/1
f 12/12/1 11/11/1 10/10/1
f 13/13/2 14/14/2 15/15/2
f 16/16/2 15/15/2 14/14/2
f 17/17/3 18/18/3 19/19/3
f 20/20/3 19/19/3 18/18/3
f 21/21/4 22/22/4 23/23/4
f 24/24/4 23/23/4 22/22/4
f 25/25/5 26/26/5 27/27/5
f 28/28/5 27/27/5 26/26/5
f 29/29/6 30/30/6 31/31/6
f 32/32/6 31/31/6 30/30/6
f 33/33/7 34/34/7 35/35/7
f 36/36/7 35/35/7 34/34/7
f 37/37/8 38/38/8 39/39/8
f 40/40/8 39/39/8 38/38/8
f 41/41/9 42/42/9 43/43/9
f 44/44/9 43/43/9 42/42/9
f 45/45/10 46/46/10 47/47/10
f 48/48/10 47/47/10 46/46/10
f 49/49/11 50/50/11 51/51/11
f 52/52/11 51/51/11 50/50/11
f 53/53/12 54/54/12 55/55/12
f 56/56/12 55/55/12 54/54/12
f 57/57/13 58/58/13 59/59/13
f 60/60/13 59/59/13 58/58/13
f 61/61/14 62/62/14 63/63/14
f 64/64/14 63/63/14 62/62/14
f 65/65/15 66/66/15 67/67/15
f 68/68/15 67/67/15 66/66/15
f 69/69/16 70/70/16 71/71/16
f 72/72/16 71/71/16 70/70/16
f 73/73/17 74/74/17 75/75/17
f 76/76/17 75/75/17 74/74/17
f 77/77/18 78/78/18 79/79/18
f 80/80/18 79/79/18 78/78/18
f 81/81/19 82/82/19 83/83/19
f 84/84/19 83/83/19 82/82/19
f 85/85/20 86/86/20 87/87/20
f 88/88/20 87/87/20 86/86/20
f 89/89/21 90/90/21 91/91/21
f 92/92/21 91/91/21 90/90/21
f 93/93/22 94/94/22 95/95/22
f 96/96/22 95/95/22 94/94/22
f 97/97/23 98/98/23 99/99/23
f 100/100/23 99/99/23 98/98/23
f 101/101/24 102/102/24 103/103/24
f 104/104/24 103/103/24 102/102/24
f 105/105/25 106/106/25 107/107/25
f 108/108/25 107/107/25 106/106/25
f 109/109/26 110/110/26 111/111/26
f 112/112/26 111/111/26 110/110/26
f 113/113/26 111/111/26 112/112/26
f 114/114/26 111/111/26 113/113/26
f 115/115/26 114/114/26 113/113/26
f 116/116/26 114/114/26 115/115/26
f 117/117/26 116/116/26 115/115/26
f 118/118/26 116/116/26 117/117/26
f 119/119/26 118/118/26 117/117/26
f 120/120/26 118/118/26 119/119/26
f 121/121/26 118/118/26 120/120/26
f 122/122/26 121/121/26 120/120/26
f 112/112/26 110/110/26 123/123/26
f 124/124/26 123/123/26 110/110/26
f 125/125/26 123/123/26 124/124/26
f 126/126/26 125/125/26 124/124/26
f 127/127/26 125/125/26 126/126/26
f 128/128/26 127/127/26 126/126/26
f 129/129/26 127/127/26 128/128/26
f 130/130/26 129/129/26 128/128/26
f 131/131/26 130/130/26 128/128/26
f 122/122/26 130/130/26 131/131/26
f 121/121/26 122/122/26 131/131/26
f 132/132/26 121/121/26 131/131/26
f 133/133/27 134/134/27 135/135/27
f 136/136/27 135/135/27 134/134/27
f 137/137/28 138/138/28 139/139/28
f 140/140/28 139/139/28 138/138/28
f 141/141/29 142/142/29 143/143/29
f 144/144/29 143/143/29 142/142/29
f 145/145/30 146/146/30 147/147/30
f 148/148/30 147/147/30 146/146/30
f 149/149/31 150/150/31 151/151/31
f 152/152/31 151/151/31 150/150/31
f 153/153/32 154/154/32 155/155/32
f 156/156/32 155/155/32 154/154/32
f 157/157/33 158/158/33 159/159/33
f 160/160/33 159/159/33 158/158/33
f 161/161/34 162/162/34 163/163/34
f 164/164/34 163/163/34 162/162/34
f 165/165/35 166/166/35 167/167/35
f 168/168/35 167/167/35 166/166/35
f 169/169/36 170/170/36 171/171/36
f 172/172/36 171/171/36 170/170/36
f 173/173/37 174/174/37 175/175/37
f 176/176/37 175/175/37 174/174/37
f 177/177/38 178/178/38 179/179/38
f 180/180/38 179/179/38 178/178/38
g plate.002_ID5.002
v 0.257508 0.050000 0.000000
v 0.223008 0.050000 -0.128754
v 0.223008 0.050000 0.128754
v 0.128754 0.050000 0.223008
v 0.128754 0.050000 -0.223008
v -0.000000 0.050000 0.257508
v 0.000000 0.050000 -0.257508
v -0.128754 0.050000 0.223008
v -0.128754 0.050000 -0.223008
v -0.223008 0.050000 0.128754
v -0.223008 0.050000 -0.128754
v -0.257508 0.050000 -0.000000
v 0.000000 0.090000 -0.384003
v -0.192002 0.090000 -0.332556
v 0.000000 0.050000 -0.257508
v -0.128754 0.050000 -0.223008
v 0.128754 0.050000 -0.223008
v 0.192002 0.090000 -0.332556
v -0.223008 0.050000 -0.128754
v -0.332556 0.090000 -0.192002
v -0.257508 0.050000 -0.000000
v -0.384003 0.090000 -0.000000
v 0.223008 0.050000 -0.128754
v 0.332556 0.090000 -0.192002
v 0.257508 0.050000 0.000000
v 0.384003 0.090000 0.000000
v 0.332556 0.090000 0.192002
v 0.223008 0.050000 0.128754
v 0.192002 0.090000 0.332556
v 0.128754 0.050000 0.223008
v -0.332556 0.090000 0.192002
v -0.223008 0.050000 0.128754
v -0.192002 0.090000 0.332556
v -0.128754 0.050000 0.223008
v -0.000000 0.050000 0.257508
v -0.000000 0.090000 0.384003
vt 0.000000 0.000000
vt 0.000000 0.000000
vt 0.000000 0.000000
vt 0.000000 0.000000
vt 0.000000 0.000000
vt 0.000000 0.000000
vt 0.000000 0.000000
vt 0.000000 0.000000
vt 0.000000 0.000000
vt 0.000000 0.000000
vt 0.000000 0.000000
vt 0.000000 0.000000
vt 0.000000 0.000000
vt 0.000000 0.000000
vt 0.000000 0.000000
vt 0.000000 0.000000
vt 0.000000 0.000000
vt 0.000000 0.000000
vt 0.000000 0.000000
vt 0.000000 0.000000
vt 0.000000 0.000000
vt 0.000000 0.000000
vt 0.000000 0.000000
vt 0.000000 0.000000
vt 0.000000 0.000000
vt 0.000000 0.000000
vt 0.000000 0.000000
vt 0.000000 0.000000
vt 0.000000 0.000000
vt 0.000000 0.000000
vt 0.000000 0.000000
vt 0.000000 0.000000
vt 0.000000 0.000000
vt 0.000000 0.000000
vt 0.000000 0.000000
vt 0.000000 0.000000
vn 0.0000 1.0000 -0.0000
vn 0.0000 0.9535 0.3015
vn 0.1507 0.9535 0.2611
vn -0.1507 0.9535 0.2611
vn 0.2611 0.9535 0.1507
vn 0.3015 0.9535 0.0000
vn -0.2611 0.9535 0.1507
vn -0.3015 0.9535 0.0000
vn -0.2611 0.9535 -0.1507
vn -0.1507 0.9535 -0.2611
vn 0.2611 0.9535 -0.1507
vn 0.1507 0.9535 -0.2611
vn 0.0000 0.9535 -0.3015
usemtl _defaultMat
s off
f 181/181/39 182/182/39 183/183/39
f 184/184/39 183/183/39 182/182/39
f 185/185/39 184/184/39 182/182/39
f 186/186/39 184/184/39 185/185/39
f 187/187/39 186/186/39 185/185/39
f 188/188/39 186/186/39 187/187/39
f 189/189/39 188/188/39 187/187/39
f 190/190/39 188/188/39 189/189/39
f 191/191/39 190/190/39 189/189/39
f 192/192/39 190/190/39 191/191/39
s 1
f 193/193/40 194/194/41 195/195/40
f 196/196/41 195/195/40 194/194/41
f 195/195/40 197/197/42 193/193/40
f 198/198/42 193/193/40 197/197/42
f 196/196/41 194/194/41 199/199/43
f 200/200/43 199/199/43 194/194/41
f 199/199/43 200/200/43 201/201/44
f 202/202/44 201/201/44 200/200/43
f 197/197/42 203/203/45 198/198/42
f 204/204/45 198/198/42 203/203/45
f 203/203/45 205/205/46 204/204/45
f 206/206/46 204/204/45 205/205/46
f 206/206/46 205/205/46 207/207/47
f 208/208/47 207/207/47 205/205/46
f 207/207/47 208/208/47 209/209/48
f 210/210/48 209/209/48 208/208/47
f 202/202/44 211/211/49 201/201/44
f 212/212/49 201/201/44 211/211/49
f 211/211/49 213/213/50 212/212/49
f 214/214/50 212/212/49 213/213/50
f 214/214/50 213/213/50 215/215/51
f 216/216/51 215/215/51 213/213/50
f 209/209/48 210/210/48 216/216/51
f 215/215/51 216/216/51 210/210/48
